# xmcd CD database file
#
# Track frame offsets:
#	180
#	14041
#	27884
#	39577
#	51060
#	62577
#	74269
#	86776
#	99248
#	112180
#	126316
#	141744
#	155857
#	169306
#	183215
#	197761
#	211757
#	223470
#	236307
#	249213
#	263316
#	276941
#	290610
#	303295
#	315716
#
# Disc length: 4362 seconds
#
# Revision: 0
# Processed by: cddbd v1.5.1PL0 Copyright (c) Steve Scherf et al.
# Submitted via: CDex 1.51
#
DISCID=7a110819
DTITLE=Benny Carter  - Vol 8 - 1937
DYEAR=1937
DGENRE=Jazz
TTITLE0=Black Bottom
TTITLE1=Black Bottom [#]
TTITLE2=Rambler's Rhythm [#]
TTITLE3=Rambler's Rhythm
TTITLE4=New Street Swing
TTITLE5=New Street Swing [#]
TTITLE6=I'll Never Give In [#]
TTITLE7=I'll Never Give In
TTITLE8=Honeysuckle Rose
TTITLE9=Crazy Rhythm
TTITLE10=(You Came Along from) Out of Nowhere
TTITLE11=Sweet Georgia Brown
TTITLE12=Skip It
TTITLE13=Lazy Afternoon 
TTITLE14=I Ain't Got Nobody
TTITLE15=I Ain't Got Nobody
TTITLE16=Blues in My Heart
TTITLE17=Somebody Loves Me
TTITLE18=Somebody Loves Me
TTITLE19=Mighty Like the Blues
TTITLE20=Pardon Me, Pretty Baby
TTITLE21=Pardon Me, Pretty Baby
TTITLE22=My Buddy
TTITLE23=My Buddy
TTITLE24=My Buddy [#]
EXTD=YEAR: 1937
EXTT0=
EXTT1=
EXTT2=
EXTT3=
EXTT4=
EXTT5=
EXTT6=
EXTT7=
EXTT8=
EXTT9=
EXTT10=
EXTT11=
EXTT12=
EXTT13=
EXTT14=
EXTT15=
EXTT16=
EXTT17=
EXTT18=
EXTT19=
EXTT20=
EXTT21=
EXTT22=
EXTT23=
EXTT24=
PLAYORDER=
